<svg width="100" height="100" viewBox="0 0 100 100" fill="none" xmlns="http://www.w3.org/2000/svg">
<g clip-path="url(#clip0_34_73)">
<path d="M17.7083 0H82.2917C92.0833 0 100 8.11966 100 18.1624V81.8376C100 91.8803 92.0833 100 82.2917 100H17.7083C7.91667 100 0 91.8803 0 81.8376V18.1624C0 8.11966 7.91667 0 17.7083 0Z" fill="#001E36"/>
<path d="M22.5 70.1281V26.1537C22.5 25.8546 22.625 25.6837 22.9167 25.6837C23.625 25.6837 24.2917 25.6837 25.25 25.6409C26.25 25.5982 27.2917 25.5982 28.4167 25.5555C29.5417 25.5127 30.75 25.5127 32.0417 25.47C33.3333 25.4272 34.5833 25.4272 35.8333 25.4272C39.25 25.4272 42.0833 25.8546 44.4167 26.752C46.5 27.4785 48.4167 28.6751 50 30.2563C51.3333 31.6238 52.375 33.2905 53.0417 35.1281C53.6667 36.923 54 38.7606 54 40.6837C54 44.3589 53.1667 47.3931 51.5 49.7862C49.8333 52.1794 47.5 53.9743 44.7917 54.9999C41.9583 56.0683 38.8333 56.4529 35.4167 56.4529C34.4167 56.4529 33.75 56.4529 33.3333 56.4102C32.9167 56.3674 32.3333 56.3674 31.5417 56.3674V70.0854C31.5833 70.3845 31.375 70.6409 31.0833 70.6837C31.0417 70.6837 31 70.6837 30.9167 70.6837H23C22.6667 70.6837 22.5 70.5127 22.5 70.1281ZM31.5833 33.9315V48.2905C32.1667 48.3332 32.7083 48.376 33.2083 48.376H35.4167C37.0417 48.376 38.6667 48.1196 40.2083 47.6067C41.5417 47.2221 42.7083 46.4102 43.625 45.3418C44.5 44.2734 44.9167 42.8204 44.9167 40.9401C44.9583 39.6153 44.625 38.2905 43.9583 37.1366C43.25 36.0255 42.25 35.1708 41.0417 34.7007C39.5 34.0597 37.8333 33.8033 36.125 33.846C35.0417 33.846 34.0833 33.8461 33.2917 33.8888C32.4583 33.8461 31.875 33.8888 31.5833 33.9315Z" fill="#31A8FF"/>
<path d="M80 45.6838C78.75 45 77.4166 44.5299 76 44.2308C74.4583 43.8889 72.9166 43.6752 71.3333 43.6752C70.5 43.6325 69.625 43.7607 68.8333 43.9744C68.2916 44.1026 67.8333 44.4017 67.5416 44.8291C67.3333 45.1709 67.2083 45.5983 67.2083 45.9829C67.2083 46.3675 67.375 46.7521 67.625 47.094C68 47.5641 68.5 47.9487 69.0416 48.2479C70 48.7607 71 49.2308 72 49.6581C74.25 50.4273 76.4166 51.4957 78.4166 52.7778C79.7916 53.6752 80.9166 54.8718 81.7083 56.3248C82.375 57.6923 82.7083 59.188 82.6666 60.7265C82.7083 62.735 82.125 64.7436 81.0416 66.4102C79.875 68.1196 78.25 69.4444 76.375 70.2137C74.3333 71.1111 71.8333 71.5812 68.8333 71.5812C66.9166 71.5812 65.0416 71.4102 63.1666 71.0256C61.7083 70.7692 60.25 70.2991 58.9166 69.6581C58.625 69.4872 58.4166 69.188 58.4583 68.8461V61.4102C58.4583 61.282 58.5 61.1111 58.625 61.0256C58.75 60.9402 58.875 60.9829 59 61.0684C60.625 62.0513 62.3333 62.735 64.1666 63.1624C65.75 63.5897 67.4166 63.8034 69.0833 63.8034C70.6666 63.8034 71.7916 63.5897 72.5416 63.2051C73.2083 62.906 73.6666 62.1795 73.6666 61.4102C73.6666 60.812 73.3333 60.2564 72.6666 59.7008C72 59.1453 70.625 58.5043 68.5833 57.6923C66.4583 56.9231 64.5 55.8974 62.6666 54.6154C61.375 53.6752 60.2916 52.4359 59.5 50.9829C58.8333 49.6154 58.5 48.1196 58.5416 46.6239C58.5416 44.7863 59.0416 43.0342 59.9583 41.453C61 39.7436 62.5416 38.3761 64.3333 37.5214C66.2916 36.4957 68.75 36.0256 71.7083 36.0256C73.4166 36.0256 75.1666 36.1538 76.875 36.4102C78.125 36.5812 79.3333 36.9231 80.4583 37.3932C80.625 37.4359 80.7916 37.6068 80.875 37.7778C80.9166 37.9487 80.9583 38.1196 80.9583 38.2906V45.2564C80.9583 45.4273 80.875 45.5983 80.75 45.6838C80.375 45.7692 80.1666 45.7692 80 45.6838Z" fill="#31A8FF"/>
</g>
<defs>
<clipPath id="clip0_34_73">
<rect width="100" height="100" fill="white"/>
</clipPath>
</defs>
</svg>
