<svg width="41" height="40" viewBox="0 0 41 40" fill="none" xmlns="http://www.w3.org/2000/svg">
<g clip-path="url(#clip0_36_116)">
<path d="M37.4896 7.3486H28.1554L27.4302 4.50282C27.0552 3.03157 25.7137 2.00415 24.1681 2.00415H16.7607C15.2151 2.00415 13.8736 3.03165 13.4985 4.5029L12.7734 7.3486H3.43923C1.58523 7.3486 0.0767822 8.82829 0.0767822 10.6471V34.6972C0.0767822 36.516 1.58523 37.9957 3.43923 37.9957H37.4896C39.3436 37.9957 40.852 36.516 40.852 34.6972V10.6471C40.8521 8.82829 39.3436 7.3486 37.4896 7.3486ZM14.7373 4.80681C14.97 3.89415 15.8021 3.25673 16.7608 3.25673H24.1681C25.1268 3.25673 25.9589 3.89415 26.1917 4.80673L26.8394 7.3486H25.3476L24.7875 5.15079C24.7165 4.87196 24.4611 4.67642 24.1681 4.67642H16.7608C16.4679 4.67642 16.2125 4.87196 16.1415 5.15079L15.5815 7.3486H14.0897L14.7373 4.80681ZM24.0314 7.3486H16.8975L17.2593 5.92899H23.6696L24.0314 7.3486ZM3.43923 8.60118H37.4896C38.1271 8.60118 38.6982 8.88353 39.0812 9.32704L34.9359 21.5262C34.5588 22.6362 33.504 23.382 32.3113 23.382H23.1459V22.0041C23.1459 21.2903 22.554 20.7097 21.8264 20.7097H19.1024C18.3748 20.7097 17.7829 21.2903 17.7829 22.0041V23.382H8.61754C7.42486 23.382 6.37004 22.6362 5.99287 21.5263L1.84764 9.32704C2.23055 8.88353 2.80172 8.60118 3.43923 8.60118ZM19.0598 24.7181V22.0042C19.0598 21.9811 19.0789 21.9624 19.1024 21.9624H21.8264C21.8499 21.9624 21.869 21.9811 21.869 22.0042V24.7181H19.0598ZM21.869 25.9707V27.3486C21.869 27.3717 21.85 27.3903 21.8265 27.3903H19.1024C19.079 27.3903 19.0599 27.3717 19.0599 27.3486V25.9707H21.869ZM39.5752 34.6972C39.5752 35.8253 38.6396 36.7431 37.4896 36.7431H3.43923C2.28924 36.7431 1.35364 35.8253 1.35364 34.6972V11.8344L4.78147 21.9224C5.33274 23.5446 6.87431 24.6346 8.61754 24.6346H17.783V27.3486C17.783 28.0624 18.3749 28.643 19.1024 28.643H21.8265C22.5541 28.643 23.146 28.0624 23.146 27.3486V24.6346H32.3114C34.0546 24.6346 35.5961 23.5447 36.1475 21.9224L39.5753 11.8344L39.5752 34.6972Z" fill="#DFDFDF"/>
</g>
<defs>
<clipPath id="clip0_36_116">
<rect width="40.7753" height="40" fill="white" transform="translate(0.0767822)"/>
</clipPath>
</defs>
</svg>
