<svg width="42" height="40" viewBox="0 0 42 40" fill="none" xmlns="http://www.w3.org/2000/svg">
<g clip-path="url(#clip0_34_113)">
<path d="M40.0397 1.66675V31.6667H34.9428V30.0001H38.3407V3.33341H4.36132V30.0001H17.9531V31.6667H2.66235V1.66675H40.0397ZM28.1469 5.00008H14.5552V6.66675H28.1469V5.00008ZM24.749 10.0001V8.33341H17.9531V10.0001H24.749ZM12.8562 18.3334H6.0603V20.0001H12.8562V18.3334ZM12.8562 21.6667H6.0603V23.3334H12.8562V21.6667ZM6.0603 26.6667H9.45824V25.0001H6.0603V26.6667ZM29.8459 21.6667C29.8459 22.326 29.6466 22.9705 29.2732 23.5186C28.8999 24.0668 28.3692 24.4941 27.7483 24.7463C27.1274 24.9986 26.4442 25.0646 25.785 24.936C25.1259 24.8074 24.5205 24.4899 24.0452 24.0238C23.57 23.5576 23.2464 22.9637 23.1153 22.317C22.9842 21.6704 23.0515 21.0002 23.3087 20.3911C23.5658 19.782 24.0014 19.2615 24.5602 18.8952C25.1189 18.5289 25.7759 18.3334 26.4479 18.3334C27.3489 18.3343 28.2126 18.6858 28.8497 19.3107C29.4867 19.9356 29.845 20.783 29.8459 21.6667ZM28.1469 21.6667C28.1469 21.3371 28.0473 21.0149 27.8606 20.7408C27.6739 20.4667 27.4086 20.2531 27.0981 20.1269C26.7877 20.0008 26.4461 19.9678 26.1165 20.0321C25.7869 20.0964 25.4842 20.2551 25.2466 20.4882C25.009 20.7213 24.8472 21.0183 24.7816 21.3416C24.7161 21.6649 24.7497 22 24.8783 22.3046C25.0069 22.6091 25.2247 22.8694 25.504 23.0525C25.7834 23.2357 26.1119 23.3334 26.4479 23.3334C26.8984 23.333 27.3303 23.1572 27.6488 22.8448C27.9673 22.5323 28.1465 22.1086 28.1469 21.6667ZM28.1503 14.5117C28.227 14.7233 28.3479 14.9167 28.5054 15.0796C28.6628 15.2425 28.8533 15.3713 29.0645 15.4577C29.2758 15.544 29.5031 15.586 29.7319 15.581C29.9607 15.5759 30.1859 15.524 30.393 15.4284C30.7314 15.2733 31.1101 15.2232 31.4784 15.2848C31.8466 15.3465 32.1869 15.5169 32.4538 15.7734C32.718 16.0324 32.8941 16.3653 32.958 16.7263C33.0219 17.0873 32.9704 17.4589 32.8106 17.7901C32.7122 17.9934 32.6584 18.2146 32.6526 18.4396C32.6468 18.6646 32.6891 18.8882 32.7768 19.0961C32.8646 19.3041 32.9957 19.4916 33.1619 19.6468C33.3281 19.8019 33.5256 19.9211 33.7416 19.9967C34.0927 20.1198 34.3965 20.3463 34.6112 20.6453C34.826 20.9442 34.9413 21.301 34.9413 21.6667C34.9413 22.0325 34.826 22.3893 34.6112 22.6882C34.3965 22.9872 34.0927 23.2137 33.7416 23.3367C33.5255 23.412 33.3279 23.531 33.1615 23.6858C32.9951 23.8407 32.8638 24.0281 32.7759 24.236C32.688 24.4438 32.6455 24.6674 32.6512 24.8923C32.6569 25.1172 32.7106 25.3385 32.8089 25.5417C32.9288 25.7831 32.9906 26.0483 32.9893 26.3167C32.9881 26.5852 32.9239 26.8498 32.8017 27.0901C32.6795 27.3303 32.5025 27.5398 32.2846 27.7022C32.0667 27.8646 31.8136 27.9757 31.5449 28.0267V39.7701L26.4479 35.5401L21.351 39.7701V28.0267C21.0826 27.9756 20.8297 27.8646 20.6119 27.7022C20.3942 27.5399 20.2174 27.3307 20.0952 27.0906C19.973 26.8506 19.9087 26.5863 19.9073 26.318C19.9059 26.0497 19.9674 25.7847 20.087 25.5434C20.1856 25.3401 20.2396 25.1186 20.2454 24.8935C20.2512 24.6684 20.2088 24.4446 20.1209 24.2366C20.033 24.0286 19.9015 23.841 19.735 23.686C19.5685 23.531 19.3706 23.412 19.1543 23.3367C18.8032 23.2137 18.4994 22.9872 18.2847 22.6882C18.0699 22.3893 17.9546 22.0325 17.9546 21.6667C17.9546 21.301 18.0699 20.9442 18.2847 20.6453C18.4994 20.3463 18.8032 20.1198 19.1543 19.9967C19.3705 19.9213 19.5681 19.8022 19.7345 19.6471C19.9009 19.4921 20.0322 19.3045 20.1201 19.0966C20.208 18.8886 20.2505 18.6649 20.2448 18.4399C20.2391 18.2148 20.1853 17.9935 20.087 17.7901C19.927 17.459 19.8752 17.0876 19.9388 16.7266C20.0024 16.3655 20.1782 16.0326 20.4421 15.7734C20.709 15.5176 21.0491 15.3476 21.417 15.2863C21.7849 15.2249 22.1631 15.2751 22.5012 15.4301C22.7084 15.5256 22.9337 15.5775 23.1626 15.5824C23.3915 15.5873 23.6189 15.5452 23.8301 15.4587C24.0414 15.3722 24.2318 15.2432 24.3892 15.0801C24.5466 14.917 24.6674 14.7234 24.7439 14.5117C24.8689 14.1667 25.0998 13.8682 25.4048 13.6571C25.7097 13.4459 26.0738 13.3326 26.4471 13.3326C26.8204 13.3326 27.1845 13.4459 27.4894 13.6571C27.7944 13.8682 28.0253 14.1667 28.1503 14.5117ZM29.8459 36.1784V27.7784C29.4841 27.7334 29.1177 27.8126 28.8086 28.0025C28.4996 28.1923 28.267 28.4812 28.1503 28.8201C28.0249 29.1645 27.794 29.4625 27.4892 29.6732C27.1845 29.8838 26.8208 29.9969 26.4479 29.9969C26.0751 29.9969 25.7114 29.8838 25.4066 29.6732C25.1019 29.4625 24.871 29.1645 24.7456 28.8201C24.6289 28.4812 24.3963 28.1923 24.0873 28.0025C23.7782 27.8126 23.4118 27.7334 23.05 27.7784V36.1767L26.4479 33.3567L29.8459 36.1784ZM26.5499 28.2634C26.781 27.6257 27.2077 27.0738 27.7714 26.6835C28.3351 26.2931 29.0081 26.0835 29.6981 26.0834C30.2089 26.0888 30.7128 26.2007 31.1762 26.4117L31.2747 26.2601C31.0739 25.8463 30.9639 25.3958 30.9518 24.9377C30.9397 24.4795 31.0258 24.024 31.2046 23.6006C31.3833 23.1772 31.6507 22.7954 31.9894 22.4797C32.3281 22.1641 32.7306 21.9218 33.1708 21.7684V21.5651C32.7309 21.4113 32.3288 21.1687 31.9904 20.853C31.652 20.5373 31.3848 20.1555 31.2061 19.7322C31.0275 19.309 30.9412 18.8537 30.9531 18.3957C30.9649 17.9377 31.0745 17.4873 31.2747 17.0734L31.1269 16.9334C30.7051 17.1298 30.2459 17.2372 29.7791 17.2487C29.3123 17.2602 28.8482 17.1754 28.4168 17C27.9855 16.8245 27.5964 16.5623 27.2749 16.2301C26.9533 15.898 26.7063 15.5034 26.5499 15.0717H26.346C26.1896 15.5034 25.9426 15.898 25.621 16.2301C25.2994 16.5623 24.9104 16.8245 24.4791 17C24.0477 17.1754 23.5836 17.2602 23.1168 17.2487C22.65 17.2372 22.1908 17.1298 21.769 16.9334L21.6212 17.0734C21.8214 17.4873 21.931 17.9377 21.9428 18.3957C21.9547 18.8537 21.8684 19.309 21.6898 19.7322C21.5111 20.1555 21.2439 20.5373 20.9055 20.853C20.5671 21.1687 20.165 21.4113 19.7251 21.5651V21.7684C20.1653 21.9218 20.5678 22.1641 20.9065 22.4797C21.2452 22.7954 21.5126 23.1772 21.6913 23.6006C21.87 24.024 21.9562 24.4795 21.9441 24.9377C21.932 25.3958 21.822 25.8463 21.6212 26.2601L21.7197 26.4101C22.1832 26.1996 22.6871 26.0883 23.1978 26.0834C23.8878 26.0835 24.5608 26.2931 25.1245 26.6835C25.6881 27.0738 26.1149 27.6257 26.346 28.2634L26.4479 28.3334L26.5499 28.2634Z" fill="#DFDFDF"/>
</g>
<defs>
<clipPath id="clip0_34_113">
<rect width="40.7753" height="40" fill="white" transform="translate(0.963379)"/>
</clipPath>
</defs>
</svg>
