<svg width="42" height="40" viewBox="0 0 42 40" fill="none" xmlns="http://www.w3.org/2000/svg">
<path fill-rule="evenodd" clip-rule="evenodd" d="M7.56054 34.9999H27.9482C28.8865 34.9999 29.6472 34.2538 29.6472 33.3333V6.66659C29.6472 5.74611 28.8865 4.99992 27.9482 4.99992H7.56054C6.62222 4.99992 5.86157 5.74611 5.86157 6.66659V33.3333C5.86157 34.2538 6.62222 34.9999 7.56054 34.9999ZM27.9482 36.6666H7.56054C5.68391 36.6666 4.1626 35.1742 4.1626 33.3333V6.66659C4.1626 4.82564 5.68391 3.33325 7.56054 3.33325H27.9482C29.8248 3.33325 31.3461 4.82564 31.3461 6.66659V33.3333C31.3461 35.1742 29.8248 36.6666 27.9482 36.6666Z" fill="#DFDFDF"/>
<path fill-rule="evenodd" clip-rule="evenodd" d="M16.0554 10.8333C16.0554 10.3731 16.4357 10 16.9049 10H27.0987C27.5679 10 27.9482 10.3731 27.9482 10.8333C27.9482 11.2936 27.5679 11.6667 27.0987 11.6667H16.9049C16.4357 11.6667 16.0554 11.2936 16.0554 10.8333Z" fill="#DFDFDF"/>
<path fill-rule="evenodd" clip-rule="evenodd" d="M16.0554 14.1666C16.0554 13.7063 16.4357 13.3333 16.9049 13.3333H27.0987C27.5679 13.3333 27.9482 13.7063 27.9482 14.1666C27.9482 14.6268 27.5679 14.9999 27.0987 14.9999H16.9049C16.4357 14.9999 16.0554 14.6268 16.0554 14.1666Z" fill="#DFDFDF"/>
<path fill-rule="evenodd" clip-rule="evenodd" d="M16.0554 20.8333C16.0554 20.3731 16.4357 20 16.9049 20H27.0987C27.5679 20 27.9482 20.3731 27.9482 20.8333C27.9482 21.2936 27.5679 21.6667 27.0987 21.6667H16.9049C16.4357 21.6667 16.0554 21.2936 16.0554 20.8333Z" fill="#DFDFDF"/>
<path fill-rule="evenodd" clip-rule="evenodd" d="M16.0554 24.1666C16.0554 23.7063 16.4357 23.3333 16.9049 23.3333H27.0987C27.5679 23.3333 27.9482 23.7063 27.9482 24.1666C27.9482 24.6268 27.5679 24.9999 27.0987 24.9999H16.9049C16.4357 24.9999 16.0554 24.6268 16.0554 24.1666Z" fill="#DFDFDF"/>
<path fill-rule="evenodd" clip-rule="evenodd" d="M9.25952 21.6667V24.1667H11.808V21.6667H9.25952ZM8.41003 20H12.6575C13.1266 20 13.5069 20.3731 13.5069 20.8333V25C13.5069 25.4603 13.1266 25.8333 12.6575 25.8333H8.41003C7.94088 25.8333 7.56055 25.4603 7.56055 25V20.8333C7.56055 20.3731 7.94088 20 8.41003 20Z" fill="#DFDFDF"/>
<path fill-rule="evenodd" clip-rule="evenodd" d="M14.1076 10.2441C14.4393 10.5695 14.4393 11.0971 14.1076 11.4226L10.109 15.3451L7.80935 13.0892C7.47761 12.7638 7.47761 12.2361 7.80935 11.9107C8.1411 11.5853 8.67896 11.5853 9.01071 11.9107L10.109 12.9881L12.9063 10.2441C13.238 9.91865 13.7759 9.91865 14.1076 10.2441Z" fill="#DFDFDF"/>
<path fill-rule="evenodd" clip-rule="evenodd" d="M36.4431 19.9999H34.7441V32.7777L35.5936 33.8888L36.4431 32.7777V19.9999ZM38.1421 33.3333L35.5936 36.6666L33.0452 33.3333V18.3333H38.1421V33.3333Z" fill="#DFDFDF"/>
<path fill-rule="evenodd" clip-rule="evenodd" d="M36.4431 14.1667H34.7441V15.8333H36.4431V14.1667ZM34.7441 12.5H36.4431C37.3815 12.5 38.1421 13.2462 38.1421 14.1667V17.5H33.0452V14.1667C33.0452 13.2462 33.8058 12.5 34.7441 12.5Z" fill="#DFDFDF"/>
</svg>
