<svg width="40" height="40" viewBox="0 0 40 40" fill="none" xmlns="http://www.w3.org/2000/svg">
<path d="M32.0524 18.9957C31.7688 18.6452 31.2547 18.5911 30.9044 18.8747L30.6203 19.1046C30.2699 19.3882 30.2158 19.9023 30.4995 20.2527C30.6609 20.452 30.8966 20.5554 31.1345 20.5554C31.3149 20.5554 31.4965 20.4959 31.6476 20.3736L31.9316 20.1437C32.2819 19.86 32.3361 19.3461 32.0524 18.9957Z" fill="#DFDFDF"/>
<path d="M29.7157 20.8873C29.4322 20.5368 28.918 20.4827 28.5677 20.7663L22.7311 25.4283C22.3807 25.712 22.3267 26.2259 22.6104 26.5763C22.7716 26.7756 23.0074 26.8791 23.2453 26.8791C23.4257 26.8791 23.6073 26.8195 23.7584 26.6973L29.595 22.0352C29.9453 21.7517 29.9994 21.2377 29.7157 20.8873Z" fill="#DFDFDF"/>
<path d="M35.1361 4.89746H4.86391C2.18195 4.89746 0 7.07941 0 9.76129V30.2392C0 32.9211 2.18195 35.103 4.86391 35.103H35.1361C37.8181 35.103 40 32.9211 40 30.2392V9.76129C40 7.07941 37.8181 4.89746 35.1361 4.89746ZM32.8056 6.53004L19.989 16.89L7.17234 6.53004H32.8056ZM33.4473 33.4704H6.53063V14.405L19.4769 24.8339C19.7758 25.0747 20.2022 25.0747 20.5011 24.8339L33.4473 14.405V33.4704H33.4473ZM38.3673 30.2391C38.3673 32.0208 36.9178 33.4703 35.1361 33.4703H35.0801V12.6992C35.0801 12.3849 34.8997 12.0986 34.6161 11.9629C34.3323 11.8271 33.9963 11.8664 33.7516 12.0635L19.989 23.15L6.22633 12.0635C5.98148 11.8664 5.64523 11.8271 5.36188 11.9629C5.07828 12.0986 4.89789 12.3849 4.89789 12.6992V33.4703H4.86383C3.08219 33.4704 1.63266 32.0208 1.63266 30.2392V9.76129C1.63266 8.07176 2.93641 6.68176 4.59055 6.54254L19.4759 18.5747C19.6255 18.6957 19.8073 18.7562 19.989 18.7562C20.1708 18.7562 20.3525 18.6957 20.5021 18.5747L35.3893 6.5409C37.053 6.67059 38.3673 8.06488 38.3673 9.76121V30.2391Z" fill="#DFDFDF"/>
</svg>
