<svg width="40" height="40" viewBox="0 0 40 40" fill="none" xmlns="http://www.w3.org/2000/svg">
<g clip-path="url(#clip0_78_429)">
<path d="M37.5 11.75V9.99999C34.6025 7.09249 30.665 5.22499 26.29 5.00249C26.01 4.97249 25.735 4.95749 25.455 4.95749C23.27 4.95749 21.3125 5.94249 20.0075 7.48999C18.6175 5.94749 16.615 4.97249 14.385 4.97249C14.16 4.97249 13.94 4.98249 13.72 5.00249C9.335 5.22499 5.395 7.09249 2.5 9.99999V11.75L0 12.5V37.5L16.75 34L17.5 35H22.5L23.25 34L40 37.5V12.5L37.5 11.75ZM13.7 28.275C10.5125 28.3675 7.5325 29.17 4.885 30.53L5 11.05C7.2125 8.96249 10.165 7.63749 13.4225 7.49999C15.4375 7.63499 17.2575 8.25749 18.82 9.25249L18.7725 28.925C17.385 28.51 15.79 28.27 14.1375 28.27C13.9825 28.27 13.8275 28.2725 13.675 28.2775L13.7 28.275ZM35 30.475C32.4675 29.17 29.4875 28.3675 26.33 28.275C26.19 28.2725 26.06 28.27 25.9275 28.27C24.2775 28.27 22.685 28.51 21.18 28.955L21.2975 9.19999C22.8 8.24749 24.6025 7.63249 26.5375 7.50249C29.8475 7.63999 32.79 8.96749 35.0025 11.0575L34.995 30.4775L35 30.475Z" fill="#DFDFDF" fill-opacity="0.5"/>
</g>
<defs>
<clipPath id="clip0_78_429">
<rect width="40" height="40" fill="white"/>
</clipPath>
</defs>
</svg>
