<svg width="100" height="100" viewBox="0 0 100 100" fill="none" xmlns="http://www.w3.org/2000/svg">
<g clip-path="url(#clip0_34_63)">
<path d="M17.7083 0H82.2917C92.0833 0 100 8.11966 100 18.1624V81.8376C100 91.8803 92.0833 100 82.2917 100H17.7083C7.91667 100 0 91.8803 0 81.8376V18.1624C0 8.11966 7.91667 0 17.7083 0Z" fill="#00005B"/>
<path d="M23.75 70.0854V26.0683C23.75 25.7691 23.875 25.5982 24.1667 25.5982C24.875 25.5982 25.5417 25.5982 26.5 25.5555C27.5 25.5127 28.5417 25.5127 29.6667 25.47C30.7917 25.4273 32 25.4273 33.2917 25.3845C34.5833 25.3418 35.8333 25.3418 37.0833 25.3418C40.5 25.3418 43.3333 25.7691 45.6667 26.6666C47.75 27.3931 49.6667 28.5897 51.25 30.1709C52.5833 31.5384 53.625 33.205 54.2917 35.0427C54.9167 36.8375 55.25 38.6751 55.25 40.5982C55.25 44.2734 54.4167 47.3076 52.75 49.7008C51.0833 52.0939 48.75 53.8888 46.0417 54.9144C43.2083 55.9828 40.0833 56.3674 36.6667 56.3674C35.6667 56.3674 35 56.3674 34.5833 56.3247C34.1667 56.282 33.5833 56.282 32.7917 56.282V69.9999C32.8333 70.2991 32.625 70.5555 32.3333 70.5982H32.1667H24.25C23.9167 70.5982 23.75 70.4273 23.75 70.0426V70.0854ZM32.8333 33.8888V48.2478C33.4167 48.2905 33.9583 48.3333 34.4583 48.3333H36.6667C38.2917 48.3333 39.9167 48.0768 41.4583 47.564C42.7917 47.1794 43.9583 46.3674 44.875 45.2991C45.75 44.2307 46.1667 42.7777 46.1667 40.8974C46.2083 39.5726 45.875 38.2478 45.2083 37.0939C44.5 35.9828 43.5 35.1281 42.2917 34.658C40.75 34.017 39.0833 33.7606 37.375 33.8033C36.2917 33.8033 35.3333 33.8033 34.5417 33.8461C33.7083 33.8033 33.125 33.8461 32.8333 33.8888Z" fill="#9999FF"/>
<path d="M61.2501 36.4102H68.5418C68.9584 36.4102 69.2918 36.7093 69.4168 37.0939C69.5418 37.4358 69.6251 37.7777 69.6668 38.1623C69.7501 38.5897 69.8334 39.0597 69.8751 39.4871C69.9168 39.9572 69.9584 40.47 69.9584 41.0255C71.2084 39.5298 72.7084 38.2905 74.4168 37.3503C76.3334 36.2392 78.5418 35.6837 80.7501 35.6837C81.0418 35.6409 81.2918 35.8546 81.3334 36.1538V36.3247V44.658C81.3334 44.9999 81.1251 45.1281 80.6668 45.1281C79.1668 45.0854 77.6251 45.2136 76.1668 45.5555C74.9584 45.8119 73.7918 46.1965 72.6668 46.7093C71.8751 47.0939 71.1251 47.6067 70.5418 48.2905V70.0854C70.5418 70.5127 70.3751 70.6837 70.0001 70.6837H61.7918C61.4584 70.7264 61.1668 70.5127 61.1251 70.1708V69.9999V46.3247C61.1251 45.2991 61.1251 44.2307 61.0834 43.1196C61.0418 42.0085 61.0418 40.8973 61.0001 39.7862C61.0001 38.8033 60.9168 37.8632 60.8334 36.8803C60.7918 36.6666 60.9168 36.4529 61.1251 36.4102C61.1251 36.3674 61.2084 36.3674 61.2501 36.4102Z" fill="#9999FF"/>
</g>
<defs>
<clipPath id="clip0_34_63">
<rect width="100" height="100" fill="white"/>
</clipPath>
</defs>
</svg>
