<svg width="41" height="40" viewBox="0 0 41 40" fill="none" xmlns="http://www.w3.org/2000/svg">
<g clip-path="url(#clip0_34_86)">
<path d="M40.237 0.195262C39.9713 -0.065413 39.5418 -0.065413 39.2761 0.195262L36.7567 2.66668H20.9334L1.04115 22.3413C0.588529 22.7854 0.339111 23.3767 0.339111 24.0047C0.339111 24.6327 0.588529 25.2241 1.04115 25.6681L14.9501 39.3126C15.417 39.7706 16.0293 39.9999 16.643 39.9999C17.2594 39.9999 17.8758 39.7686 18.3481 39.3059L37.7177 19.7912V3.60938L40.237 1.13796C40.5028 0.877285 40.5028 0.455938 40.237 0.195262ZM36.3585 19.2499L17.3804 38.3699C16.9753 38.7672 16.3161 38.7672 15.911 38.3699L2.00212 24.7254C1.59707 24.3281 1.59707 23.6814 2.00416 23.282L21.5002 4.00006H35.3975L32.113 7.22216C31.5754 6.87282 30.9332 6.66681 30.242 6.66681C28.3683 6.66681 26.8439 8.16219 26.8439 10.0003C26.8439 11.8383 28.3683 13.3337 30.242 13.3337C32.1157 13.3337 33.6401 11.8383 33.6401 10.0003C33.6401 9.32223 33.4301 8.69221 33.0739 8.16486L36.3585 4.94275V19.2499ZM32.2808 10.0003C32.2808 11.103 31.3661 12.0003 30.242 12.0003C29.1179 12.0003 28.2032 11.103 28.2032 10.0003C28.2032 8.89755 29.1179 8.00019 30.242 8.00019C30.556 8.00019 30.8496 8.07619 31.1153 8.20086L29.7615 9.52891C29.4958 9.78958 29.4958 10.2109 29.7615 10.4716C29.894 10.6016 30.068 10.6669 30.242 10.6669C30.416 10.6669 30.59 10.6016 30.7225 10.4716L32.0763 9.14356C32.204 9.40424 32.2808 9.69225 32.2808 10.0003Z" fill="#DFDFDF"/>
</g>
<defs>
<clipPath id="clip0_34_86">
<rect width="40.7753" height="40" fill="white"/>
</clipPath>
</defs>
</svg>
