<svg width="25" height="25" viewBox="0 0 25 25" fill="none" xmlns="http://www.w3.org/2000/svg">
<path d="M16.7614 12.1307C17.8626 11.2474 18.6624 10.0442 19.0503 8.6871C19.4381 7.33002 19.3948 5.88607 18.9265 4.55461C18.4582 3.22315 17.5878 2.06987 16.4356 1.25403C15.2835 0.438176 13.9063 0 12.4943 0C11.0823 0 9.70518 0.438176 8.55301 1.25403C7.40083 2.06987 6.53048 3.22315 6.06214 4.55461C5.59379 5.88607 5.55054 7.33002 5.93838 8.6871C6.32621 10.0442 7.12599 11.2474 8.22727 12.1307C5.81746 13.0068 3.73553 14.6026 2.26379 16.7015C0.792053 18.8004 0.00173159 21.301 0 23.8641V25H25V23.8641C24.9974 21.2997 24.2054 18.7981 22.7316 16.699C21.2577 14.5999 19.1733 13.005 16.7614 12.1307ZM7.95455 6.82623C7.95455 5.92762 8.22113 5.04919 8.72059 4.30203C9.22005 3.55486 9.92996 2.97252 10.7605 2.62863C11.5911 2.28475 12.505 2.19478 13.3868 2.37009C14.2685 2.5454 15.0784 2.97812 15.7141 3.61353C16.3498 4.24894 16.7827 5.05851 16.9581 5.93985C17.1335 6.82119 17.0435 7.73472 16.6995 8.56493C16.3554 9.39513 15.7728 10.1047 15.0253 10.604C14.2778 11.1032 13.399 11.3697 12.5 11.3697C11.2945 11.3697 10.1383 10.891 9.28588 10.0389C8.43344 9.18687 7.95455 8.03122 7.95455 6.82623ZM2.34091 22.7283C2.61874 20.2278 3.80929 17.9175 5.68472 16.2396C7.56014 14.5617 9.98872 13.634 12.5057 13.634C15.0226 13.634 17.4512 14.5617 19.3266 16.2396C21.2021 17.9175 22.3926 20.2278 22.6705 22.7283H2.34091Z" fill="#DFDFDF"/>
</svg>
