<svg width="40" height="40" viewBox="0 0 40 40" fill="none" xmlns="http://www.w3.org/2000/svg">
<path d="M34.0249 7.06689C34.9749 7.06689 35.6916 7.90023 35.3082 9.45023L30.6582 31.3669C30.3332 32.9252 29.3916 33.3002 28.0916 32.5752L16.9999 24.3836C16.9569 24.3527 16.9219 24.312 16.8977 24.2649C16.8735 24.2178 16.8609 24.1657 16.8609 24.1127C16.8609 24.0598 16.8735 24.0076 16.8977 23.9605C16.9219 23.9134 16.9569 23.8728 16.9999 23.8419L29.8082 12.2752C30.3916 11.7586 29.6832 11.5086 28.9166 11.9752L12.8416 22.1169C12.7928 22.1487 12.7375 22.169 12.6797 22.1762C12.622 22.1834 12.5633 22.1774 12.5082 22.1586L5.68324 20.0002C4.16658 19.5586 4.16658 18.5169 6.02491 17.7752L33.3332 7.24189C33.5498 7.138 33.785 7.07849 34.0249 7.06689Z" stroke="#DFDFDF" stroke-width="2" stroke-linecap="round" stroke-linejoin="round"/>
</svg>
