<svg width="159" height="167" viewBox="0 0 159 167" fill="none" xmlns="http://www.w3.org/2000/svg">
<path d="M158.561 10.9393C159.147 11.5251 159.147 12.4749 158.561 13.0607L149.015 22.6066C148.429 23.1924 147.479 23.1924 146.893 22.6066C146.308 22.0208 146.308 21.0711 146.893 20.4853L155.379 12L146.893 3.51472C146.308 2.92892 146.308 1.97919 146.893 1.3934C147.479 0.807617 148.429 0.807617 149.015 1.3934L158.561 10.9393ZM2.00847 166.159C-3.53209 114.28 10.946 75.277 39.1711 49.2718C67.3484 23.3107 109.013 10.5 157.5 10.5V13.5C109.487 13.5 68.6515 26.1893 41.2039 51.4782C13.804 76.723 -0.467959 114.72 4.99151 165.841L2.00847 166.159Z" fill="#DFDFDF"/>
</svg>
