<svg width="224" height="180" viewBox="0 0 224 180" fill="none" xmlns="http://www.w3.org/2000/svg">
<path d="M223.658 168.454C224.184 167.814 224.093 166.869 223.454 166.342L213.035 157.758C212.395 157.231 211.45 157.322 210.923 157.962C210.396 158.601 210.487 159.547 211.127 160.073L220.388 167.704L212.758 176.965C212.231 177.605 212.322 178.55 212.962 179.077C213.601 179.604 214.546 179.512 215.073 178.873L223.658 168.454ZM0.5 0.5C0.5 57.5916 19.502 103.326 56.9435 132.988C94.3516 162.624 149.914 176.015 222.644 168.993L222.356 166.007C150.086 172.985 95.3984 159.626 58.8064 130.637C22.248 101.674 3.5 56.9084 3.5 0.5H0.5Z" fill="#DFDFDF"/>
</svg>
