<svg width="209" height="202" viewBox="0 0 209 202" fill="none" xmlns="http://www.w3.org/2000/svg">
<path d="M208.061 191.561C208.646 190.975 208.646 190.025 208.061 189.439L198.515 179.893C197.929 179.308 196.979 179.308 196.393 179.893C195.808 180.479 195.808 181.429 196.393 182.015L204.879 190.5L196.393 198.985C195.808 199.571 195.808 200.521 196.393 201.107C196.979 201.692 197.929 201.692 198.515 201.107L208.061 191.561ZM4.01483 0.789551C-4.76069 62.7196 3.29068 110.683 35.1999 143.115C67.0569 175.493 122.327 192 207 192V189C122.558 189 68.3274 172.507 37.3384 141.01C6.40148 109.567 -1.73935 62.7804 6.98515 1.21045L4.01483 0.789551Z" fill="#DFDFDF"/>
</svg>
