<svg width="40" height="40" viewBox="0 0 40 40" fill="none" xmlns="http://www.w3.org/2000/svg">
<path d="M2.5 12.0835C2.5 16.8502 7.26667 29.5835 20 29.5835H23.1833V24.8168H24.85C26.9079 25.8413 28.5755 27.509 29.6 29.5668H37.5V28.0002C35.8333 25.5002 33.25 23.7502 31.1333 21.6335C33.2166 19.5497 34.6968 16.9408 35.4167 14.0835L35.9167 12.0835H29.55L29.3833 12.5835C28.447 15.3834 26.8656 17.924 24.7667 20.0002H23.1833V12.0835H15.2333V13.6668L16.8167 15.3335V21.6668C14.8979 20.9194 13.2566 19.5977 12.1171 17.8825C10.9776 16.1672 10.3954 14.142 10.45 12.0835H2.5Z" stroke="#DFDFDF" stroke-width="2" stroke-miterlimit="10"/>
</svg>
